<svg xmlns="http://www.w3.org/2000/svg" width="20.146" height="20.146" viewBox="0 0 20.146 20.146">
  <g id="Group_1" data-name="Group 1" transform="translate(0 20.146)">
    <path id="Path_5" data-name="Path 5" d="M19.426-15.829l-2.158-2.878a6.683,6.683,0,0,1-7.195-.719,6.683,6.683,0,0,1-7.195.719L.72-15.829c2.323,1.559,2.506,2.822,1.836,5.793C1.169-3.882,3.612-1.934,10.073-.72c6.46-1.215,8.9-3.163,7.517-9.316C16.92-13.007,17.1-14.27,19.426-15.829Z" fill="none" stroke="#dc143c" stroke-linecap="round" stroke-linejoin="round" stroke-width="1.439"/>
    <path id="Path_6" data-name="Path 6" d="M10.339-12.777l1.173,2.49,2.623.4a.315.315,0,0,1,.165.531L12.4-7.419l.448,2.737a.3.3,0,0,1-.431.328L10.073-5.646,7.727-4.354A.3.3,0,0,1,7.3-4.682l.448-2.737-1.9-1.938a.315.315,0,0,1,.165-.531l2.622-.4,1.173-2.49A.292.292,0,0,1,10.339-12.777ZM5.756-14.39a7.194,7.194,0,0,1,8.634,0" fill="none" stroke="#dc143c" stroke-linecap="round" stroke-linejoin="round" stroke-width="1.439"/>
  </g>
</svg>
